<mxfile host="app.diagrams.net" modified="2024-09-19T06:09:51.049Z" agent="Mozilla/5.0 (Windows NT 10.0; Win64; x64) AppleWebKit/537.36 (KHTML, like Gecko) Chrome/128.0.0.0 Safari/537.36" etag="v3ROqStehzny83YXt78s" border="50" scale="3" compressed="false" locked="false" version="24.2.5" type="github">
  <diagram name="Blank" id="YmL12bMKpDGza6XwsDPr">
    <mxGraphModel dx="1434" dy="738" grid="0" gridSize="10" guides="1" tooltips="1" connect="1" arrows="1" fold="1" page="0" pageScale="1" pageWidth="827" pageHeight="1169" background="none" math="1" shadow="0">
      <root>
        <mxCell id="X5NqExCQtvZxIxQ7pmgY-0" />
        <mxCell id="1" parent="X5NqExCQtvZxIxQ7pmgY-0" />
        <mxCell id="z54JJB4ew-NgABcwa1E3-19" value="" style="edgeStyle=orthogonalEdgeStyle;rounded=0;orthogonalLoop=1;jettySize=auto;html=1;" edge="1" parent="1" source="z54JJB4ew-NgABcwa1E3-1" target="z54JJB4ew-NgABcwa1E3-18">
          <mxGeometry relative="1" as="geometry" />
        </mxCell>
        <mxCell id="z54JJB4ew-NgABcwa1E3-1" value="" style="rounded=0;whiteSpace=wrap;html=1;" vertex="1" parent="1">
          <mxGeometry x="155" y="330" width="125" height="92" as="geometry" />
        </mxCell>
        <mxCell id="z54JJB4ew-NgABcwa1E3-10" value="" style="edgeStyle=orthogonalEdgeStyle;rounded=0;orthogonalLoop=1;jettySize=auto;html=1;exitX=1;exitY=0.5;exitDx=0;exitDy=0;entryX=0.5;entryY=1;entryDx=0;entryDy=0;" edge="1" parent="1" source="z54JJB4ew-NgABcwa1E3-1" target="z54JJB4ew-NgABcwa1E3-16">
          <mxGeometry relative="1" as="geometry">
            <mxPoint x="293" y="373" as="sourcePoint" />
            <mxPoint x="417" y="326" as="targetPoint" />
            <Array as="points">
              <mxPoint x="511" y="376" />
            </Array>
          </mxGeometry>
        </mxCell>
        <mxCell id="z54JJB4ew-NgABcwa1E3-16" value="" style="rounded=0;whiteSpace=wrap;html=1;" vertex="1" parent="1">
          <mxGeometry x="451" y="209" width="120" height="60" as="geometry" />
        </mxCell>
        <mxCell id="z54JJB4ew-NgABcwa1E3-18" value="" style="rounded=0;whiteSpace=wrap;html=1;" vertex="1" parent="1">
          <mxGeometry x="448.5" y="491" width="125" height="92" as="geometry" />
        </mxCell>
      </root>
    </mxGraphModel>
  </diagram>
</mxfile>
